#!OML:ASF H:\IndianDance\Patient Classification 1\Patient 1\Session 1\dancer.ASF
:FULLY-SPECIFIED
:DEGREES
2169
root 32.5952 15.4975 7.45209 -178.703 -32.1407 -175.592
lowerback 5.44338 4.75713 7.18712
upperback -3.65365 6.90655 -0.271766
thorax -6.00724 3.0722 -4.96178
lowerneck -17.1951 7.88621 6.37003
upperneck 27.2124 8.08553 2.03513
head 12.0004 4.31292 0.894916
rclavicle 1.77889e-014 1.45858e-014
rhumerus -75.756 -35.3467 -25.8244
rradius 9.01355
rwrist 58.484
rhand -6.48574 5.45648
rfingers 7.12502
rthumb 19.3654 336.401
lclavicle 1.77889e-014 1.45858e-014
lhumerus -55.9573 17.632 67.4479
lradius 14.2392
lwrist -25.6948
lhand -6.60146 9.27516
lfingers 7.12502
lthumb 19.2541 -321.658
rfemur -367.963 -0.627337 388.019
rtibia 25.6715
rfoot -18.9946 -3.896
rtoes 5.25316
lfemur -223.789 173.235 -197.104
ltibia 87.3365
lfoot 7.22507 -4.64543
ltoes 15.8682
2170
root 32.5929 15.497 7.45091 -178.683 -32.1927 -175.691
lowerback 5.44252 4.64941 7.18572
upperback -3.66813 6.76526 -0.194529
thorax -6.05027 3.00049 -4.87107
lowerneck -17.1716 7.78298 6.3748
upperneck 27.0135 7.95406 2.01806
head 11.916 4.25597 0.860714
rclavicle -5.1475e-014 -1.27055e-014
rhumerus -75.3846 -35.9768 -25.3142
rradius 8.69605
rwrist 59.5134
rhand -5.76357 3.3522
rfingers 7.12502
rthumb 20.0596 334.368
lclavicle -5.1475e-014 -1.27055e-014
lhumerus -55.6812 17.9942 66.509
lradius 13.8534
lwrist -27.875
lhand -9.41978 9.11416
lfingers 7.12502
lthumb 16.5423 -321.571
rfemur -367.944 -0.474527 387.953
rtibia 25.7377
rfoot -19.029 -4.16034
rtoes 5.26591
lfemur -223.699 173.006 -197.222
ltibia 86.284
lfoot 7.00086 -4.0743
ltoes 17.4264
2171
root 32.5896 15.4966 7.45024 -178.654 -32.221 -175.786
lowerback 5.43585 4.54352 7.18945
upperback -3.68473 6.62635 -0.114871
thorax -6.09127 2.92978 -4.7801
lowerneck -17.1519 7.68251 6.38013
upperneck 26.8223 7.82648 1.99869
head 11.8358 4.20014 0.826797
rclavicle -1.71087e-014 8.32411e-015
rhumerus -74.9635 -36.6546 -24.8481
rradius 8.43475
rwrist 60.3352
rhand -5.02086 1.31868
rfingers 7.12502
rthumb 20.7734 332.411
lclavicle -1.71087e-014 8.32411e-015
lhumerus -55.4354 18.6214 65.2691
lradius 13.4317
lwrist -30.43
lhand -11.9705 8.99721
lfingers 7.12502
lthumb 14.0854 -321.5
rfemur -367.938 -0.332672 387.883
rtibia 25.8067
rfoot -19.0655 -4.38489
rtoes 5.29482
lfemur -223.62 172.735 -197.328
ltibia 85.2146
lfoot 6.86259 -3.47612
ltoes 19.2326
2172
root 32.5854 15.4962 7.44981 -178.619 -32.2294 -175.872
lowerback 5.42214 4.43935 7.19726
upperback -3.70324 6.48958 -0.0295586
thorax -6.12986 2.86005 -4.68481
lowerneck -17.1331 7.5865 6.3891
upperneck 26.6331 7.70709 1.96993
head 11.7577 4.14692 0.790493
rclavicle 5.67297e-014 8.54774e-015
rhumerus -74.5139 -37.3589 -24.4174
rradius 8.24319
rwrist 60.985
rhand -4.35809 -0.527452
rfingers 7.12502
rthumb 21.4101 330.636
lclavicle 5.67297e-014 8.54774e-015
lhumerus -55.2384 19.5215 63.7339
lradius 12.9993
lwrist -33.2726
lhand -14.0828 8.9294
lfingers 7.12502
lthumb 12.0492 -321.437
rfemur -367.945 -0.204219 387.813
rtibia 25.88
rfoot -19.1069 -4.57115
rtoes 5.33019
lfemur -223.55 172.431 -197.413
ltibia 84.135
lfoot 6.77426 -2.89433
ltoes 21.0824
2173
root 32.5806 15.4956 7.44952 -178.577 -32.218 -175.963
lowerback 5.40742 4.33877 7.19487
upperback -3.72159 6.35675 0.0591295
thorax -6.16819 2.79282 -4.58042
lowerneck -17.1215 7.49753 6.40308
upperneck 26.4539 7.59988 1.9269
head 11.6862 4.0976 0.750883
rclavicle 6.63506e-014 3.65764e-014
rhumerus -74.0566 -38.0729 -24.0097
rradius 8.13429
rwrist 61.482
rhand -3.82237 -2.07293
rfingers 7.12502
rthumb 21.9245 329.149
lclavicle 6.63506e-014 3.65764e-014
lhumerus -55.0829 20.6351 61.9852
lradius 12.5724
lwrist -36.235
lhand -15.7605 8.90905
lfingers 7.12502
lthumb 10.4311 -321.37
rfemur -367.958 -0.086448 387.734
rtibia 25.9579
rfoot -19.1528 -4.72343
rtoes 5.38306
lfemur -223.483 172.094 -197.492
ltibia 83.0521
lfoot 6.72165 -2.34087
ltoes 22.8985
